<svg xmlns="http://www.w3.org/2000/svg" xmlns:xlink="http://www.w3.org/1999/xlink" viewBox="0 0 369.75 146.37"><defs><style>.cls-1{isolation:isolate;}.cls-2{font-size:60px;font-family:RussoOne, Russo One;letter-spacing:0.02em;}.cls-2,.cls-3,.cls-4{fill:#fff;}.cls-3{font-size:32.67px;font-family:SegoePrint-Bold, Segoe Print;font-weight:700;}.cls-5{fill:#05bcaf;}.cls-5,.cls-7{stroke:#000;}.cls-5,.cls-6,.cls-7,.cls-8{stroke-miterlimit:10;}.cls-6,.cls-8{stroke:#05bcaf;}.cls-7,.cls-8{fill:none;}.cls-9{mix-blend-mode:lighten;fill:url(#radial-gradient);}</style><radialGradient id="radial-gradient" cx="7.01" cy="28.03" r="25.91" gradientUnits="userSpaceOnUse"><stop offset="0.03" stop-color="#fff"></stop><stop offset="0.11" stop-color="#fff" stop-opacity="0.8"></stop><stop offset="0.2" stop-color="#fff" stop-opacity="0.6"></stop><stop offset="0.25" stop-color="#fff" stop-opacity="0.52"></stop><stop offset="0.26" stop-color="#fff" stop-opacity="0.49"></stop><stop offset="0.31" stop-color="#fff" stop-opacity="0.36"></stop><stop offset="0.37" stop-color="#fff" stop-opacity="0.25"></stop><stop offset="0.44" stop-color="#fff" stop-opacity="0.16"></stop><stop offset="0.51" stop-color="#fff" stop-opacity="0.09"></stop><stop offset="0.6" stop-color="#fff" stop-opacity="0.04"></stop><stop offset="0.72" stop-color="#fff" stop-opacity="0.01"></stop><stop offset="1" stop-color="#fff" stop-opacity="0"></stop></radialGradient></defs><g class="cls-1"><g id="Layer_1" data-name="Layer 1"><text class="cls-2" transform="translate(91.86 68.55) scale(0.81 1)">RESHLINE</text><text class="cls-3" transform="translate(103.53 115.42)">Detailing auto</text><path class="cls-4" d="M357.18,65.53a4.56,4.56,0,1,1,4.56,4.61A4.46,4.46,0,0,1,357.18,65.53Z"></path><rect class="cls-5" x="24.18" y="5.63" width="11.85" height="140.74"></rect><rect class="cls-5" x="48.48" y="60.64" width="12.79" height="37.7" transform="translate(-24.61 134.37) rotate(-90)"></rect><rect class="cls-5" x="51.72" y="-10.06" width="12.79" height="44.16" transform="translate(46.09 70.14) rotate(-90)"></rect><rect class="cls-5" x="4.79" y="26.57" width="11.85" height="103.52"></rect><rect class="cls-5" x="38.79" y="50.94" width="12.79" height="57.09" transform="translate(-34.3 124.68) rotate(-90)"></rect><rect class="cls-5" x="47.95" y="-4.74" width="12.79" height="75.4" transform="translate(21.38 87.31) rotate(-90)"></rect><line class="cls-6" x1="16.1" y1="73.67" x2="16.1" y2="85.31"></line><line class="cls-6" x1="17.18" y1="73.67" x2="17.18" y2="85.31"></line><line class="cls-6" x1="24.72" y1="27.15" x2="35.49" y2="27.15"></line><line class="cls-6" x1="24.72" y1="25.99" x2="35.49" y2="25.99"></line><line class="cls-6" x1="24.72" y1="39.94" x2="35.49" y2="39.94"></line><line class="cls-6" x1="24.72" y1="38.78" x2="35.49" y2="38.78"></line><line class="cls-6" x1="36.03" y1="6.13" x2="36.03" y2="17.92"></line><line class="cls-6" x1="36.03" y1="6.21" x2="36.03" y2="17.84"></line><line class="cls-7" x1="24.18" y1="26.57" x2="24.18" y2="41.69"></line><line class="cls-7" x1="36.03" y1="39.36" x2="36.03" y2="26.57"></line><line class="cls-8" x1="24.68" y1="26.57" x2="35.52" y2="26.57"></line><line class="cls-8" x1="24.68" y1="39.36" x2="35.53" y2="39.36"></line><line class="cls-8" x1="16.64" y1="27.07" x2="16.64" y2="38.86"></line></g><g id="glow"><circle class="cls-9" cx="7.01" cy="28.03" r="25.91"></circle></g></g></svg>